<svg xmlns="http://www.w3.org/2000/svg" viewBox="0 0 150.477 28.943"><defs><linearGradient id="LogoGradient_svg__a" x1="1" x2="-0.029" y1="0.763" gradientUnits="objectBoundingBox"><stop offset="0" stop-color="#ff2264"></stop><stop offset="0.941" stop-color="#fea807"></stop><stop offset="1" stop-color="#feb100"></stop></linearGradient></defs><path d="m.417 28.851-.052-.01.529-3.435v-.013l2.738-15.062-2.665-.06L3.044 0h12.339a6.739 6.739 0 0 1 5.652 2.632 7.447 7.447 0 0 1 .757 6.746c-1.567 4.834-6.792 8.767-11.65 8.767h-2.18l1.927-4.958h1.218a6.728 6.728 0 0 0 5.821-4.42 3.088 3.088 0 0 0-.248-2.811 2.685 2.685 0 0 0-2.259-1h-4.048v-.01H7.017L6.57 7.719h2.2L.417 28.943zM138.3 21.489a7.539 7.539 0 0 1-2.59-2.958 8.94 8.94 0 0 1-.945-4.091 8.386 8.386 0 0 1 2.08-5.745 6.511 6.511 0 0 1 5.068-2.36 6.172 6.172 0 0 1 2.7.6 4.106 4.106 0 0 1 1.83 1.553V0h4.4v22.264h-4.4v-1.847a4.033 4.033 0 0 1-1.822 1.56 6.218 6.218 0 0 1-2.705.6 6.423 6.423 0 0 1-3.616-1.088zm1.875-9.821a3.783 3.783 0 0 0-1.1 2.771 3.782 3.782 0 0 0 1.1 2.771 3.662 3.662 0 0 0 2.713 1.11 4.182 4.182 0 0 0 2.08-.543 3.839 3.839 0 0 0 1.471-1.4v-3.82a3.878 3.878 0 0 0-1.471-1.444 4.093 4.093 0 0 0-2.08-.559 3.662 3.662 0 0 0-2.714 1.114zM119.8 21.489a7.547 7.547 0 0 1-2.591-2.958 8.949 8.949 0 0 1-.945-4.091 8.383 8.383 0 0 1 2.08-5.745 6.511 6.511 0 0 1 5.068-2.36 6.172 6.172 0 0 1 2.7.6 4.105 4.105 0 0 1 1.829 1.553V6.645h4.4v15.619h-4.4v-1.847a4.033 4.033 0 0 1-1.822 1.56 6.221 6.221 0 0 1-2.705.6 6.423 6.423 0 0 1-3.614-1.088zm1.875-9.821a3.783 3.783 0 0 0-1.1 2.771 3.782 3.782 0 0 0 1.1 2.771 3.662 3.662 0 0 0 2.713 1.11 4.182 4.182 0 0 0 2.08-.543 3.839 3.839 0 0 0 1.471-1.4v-3.82a3.878 3.878 0 0 0-1.471-1.444 4.093 4.093 0 0 0-2.08-.559 3.662 3.662 0 0 0-2.716 1.114zm-20.08 8.54a7.975 7.975 0 0 1-2.339-5.83 7.8 7.8 0 0 1 2.309-5.722 7.678 7.678 0 0 1 5.662-2.321 7.11 7.11 0 0 1 5.251 2.158 7.208 7.208 0 0 1 2.141 5.279 11.757 11.757 0 0 1-.122 1.755h-11.023a3.942 3.942 0 0 0 1.326 2.414 4 4 0 0 0 2.606.83 4.6 4.6 0 0 0 1.989-.45 2.907 2.907 0 0 0 1.349-1.149l3.429 2.143a5.607 5.607 0 0 1-2.652 2.406 9.771 9.771 0 0 1-4.206.854 7.738 7.738 0 0 1-5.724-2.367zm3.147-9.541a3.6 3.6 0 0 0-1.2 2h6.675a2.893 2.893 0 0 0-1.067-1.941 3.254 3.254 0 0 0-2.149-.776 3.475 3.475 0 0 0-2.262.717zM65 20.208a7.975 7.975 0 0 1-2.339-5.83 7.8 7.8 0 0 1 2.309-5.722 7.678 7.678 0 0 1 5.662-2.321 7.11 7.11 0 0 1 5.248 2.158 7.208 7.208 0 0 1 2.141 5.279 11.757 11.757 0 0 1-.122 1.755H66.88a3.942 3.942 0 0 0 1.326 2.414 4 4 0 0 0 2.606.83 4.594 4.594 0 0 0 1.989-.45 2.906 2.906 0 0 0 1.349-1.149l3.429 2.143a5.607 5.607 0 0 1-2.652 2.406 9.771 9.771 0 0 1-4.206.854A7.738 7.738 0 0 1 65 20.208m3.147-9.541a3.6 3.6 0 0 0-1.2 2h6.675a2.893 2.893 0 0 0-1.067-1.941 3.254 3.254 0 0 0-2.155-.773 3.475 3.475 0 0 0-2.254.714zm-43.986 9.594a7.9 7.9 0 0 1-2.286-5.79 7.955 7.955 0 0 1 2.286-5.807 7.642 7.642 0 0 1 5.685-2.329 7.961 7.961 0 0 1 3.132.621 7.7 7.7 0 0 1 2.53 1.7 7.922 7.922 0 0 1 1.677 2.593 8.453 8.453 0 0 1 .617 3.222 8.33 8.33 0 0 1-1.044 4.145 7.55 7.55 0 0 1-2.865 2.911 7.971 7.971 0 0 1-4.046 1.048 7.668 7.668 0 0 1-5.686-2.314m3.071-8.547a3.837 3.837 0 0 0-1.044 2.756 3.8 3.8 0 0 0 1.044 2.717 3.624 3.624 0 0 0 5.205 0 3.787 3.787 0 0 0 1.052-2.717 3.837 3.837 0 0 0-1.044-2.756 3.651 3.651 0 0 0-5.213 0zm65.315 10.55V0h4.4v22.264zm-12.071 0V6.645h4.4v1.848a4 4 0 0 1 1.608-1.56 4.274 4.274 0 0 1 2.08-.6 5.162 5.162 0 0 1 1.875.279l-.259 4.207a5.68 5.68 0 0 0-1.966-.357 3.434 3.434 0 0 0-1.821.644 4.168 4.168 0 0 0-1.517 1.716v9.44zm-27.159 0-3.094-8.555-3.123 8.555h-3.4L38.167 6.645h4.724l2.561 8.555 3.018-8.555h3.475l3.078 8.555 2.53-8.555h4.74l-5.517 15.619z" data-name="Union 33" style="fill:url(#LogoGradient_svg__a)" transform="translate(-.365)"></path></svg>